<svg width="512" height="512" viewBox="0 0 80 80" xmlns="http://www.w3.org/2000/svg">
  <path fill="#000000" d="M12 0h56a12 12 0 0 1 12 12v56a12 12 0 0 1-12 12H12A12 12 0 0 1 0 68V12A12 12 0 0 1 12 0Z"/>
  <path fill="none" stroke="#FFFFFF" stroke-width="1" d="M12 0h56a12 12 0 0 1 12 12v56a12 12 0 0 1-12 12H12A12 12 0 0 1 0 68V12A12 12 0 0 1 12 0Z"/>
  <path fill="#FFFFFF" d="M40 20Q38 22 25 40Q23 42 26 42H30Q32 40 40 30Q48 40 50 42H54Q57 42 55 40Q42 22 40 20Z"/>
  <circle cx="40" cy="46" r="3" fill="#FFFFFF"/>
  <path fill="none" stroke="#FFFFFF" stroke-width="3.5" stroke-linecap="round" d="M18 50Q40 70 62 50"/>
</svg>
